# xmcd
#
# Track frame offsets:
#	150
#	12713
#	24352
#	35887
#	47719
#	58513
#	68748
#	85700
#	98690
#	110255
#	122521
#	135814
#	147102
#	157338
#	163067
#	173486
#	191902
#	208365
#	225564
#	239847
#
# Disc length: 3442
#
# Revision: 2
# Processed by: cddbd v1.5.1PL0 Copyright (c) Steve Scherf et al.
# Submitted via: EasyCDDAExtractor 4.6.9.1
# Normalized: r0:TDELIM( - ),TSWAP
#
DISCID=160d7014
DTITLE=Various Artist - The Heart Of The Country [CD2]
DYEAR=1900
DGENRE=Country
TTITLE0=Johnny Horton - North To Alaska
TTITLE1=Kitty Wells - Heartbreak, U.S.A.
TTITLE2=Ernest Tubb - Walkin' The Floor Over You
TTITLE3=Hank Snow - The Golden Rocket
TTITLE4=Hank Williams Sr. - I'll Never Get Out Of This World Alive
TTITLE5=Patsy Cline - Lovesick Blues
TTITLE6=Willie Nelson - Me And Paul
TTITLE7=Waylon Jennings - Amanda
TTITLE8=Crystal Gayle - Don't It Make My Brown Eyes Blue
TTITLE9=Merle Haggard - Rainbow Stew
TTITLE10=Dottie West - A Lesson In Leavin'
TTITLE11=Don Gibson - Sea Of Heartbreak
TTITLE12=Connie Smith - Once A Day
TTITLE13=Hank Locklin - Please Help Me I'm Falling
TTITLE14=Patsy Cline - Honky Tonk Merry-Go Round
TTITLE15=Kris Kristofferson - Casey's Last Ride
TTITLE16=Billy Joe Shaver - West Texas Waltz
TTITLE17=Waylon Jennings - Right For The Time
TTITLE18=Willie Nelson - Yesterday's Wine
TTITLE19=June Carter Cash - Will The Circle Be Unbroken
EXTD=
EXTT0=
EXTT1=
EXTT2=
EXTT3=
EXTT4=
EXTT5=
EXTT6=
EXTT7=
EXTT8=
EXTT9=
EXTT10=
EXTT11=
EXTT12=
EXTT13=
EXTT14=
EXTT15=
EXTT16=
EXTT17=
EXTT18=
EXTT19=
PLAYORDER=
